<svg width="247" height="30" viewBox="0 0 247 30" fill="none" xmlns="http://www.w3.org/2000/svg">
<path d="M15.537 5.725L18.159 9.867L5.828 17.068L18.159 24.136L15.442 28.411L0.641 19.215V14.959L15.537 5.725ZM34.3892 2.001C36.2765 2.001 37.8788 2.25433 39.1962 2.761C40.5262 3.255 41.7422 3.958 42.8442 4.87L39.7852 8.556C39.0632 7.96067 38.2652 7.492 37.3912 7.15C36.5172 6.79533 35.5672 6.618 34.5412 6.618C33.4392 6.618 32.4322 6.93467 31.5202 7.568C30.6082 8.18867 29.8798 9.17667 29.3352 10.532C28.7905 11.8747 28.5182 13.6227 28.5182 15.776C28.5182 17.8913 28.7778 19.6203 29.2972 20.963C29.8292 22.293 30.5575 23.2747 31.4822 23.908C32.4068 24.5287 33.4645 24.839 34.6552 24.839C35.9725 24.839 37.0682 24.592 37.9422 24.098C38.8162 23.604 39.6205 23.0657 40.3552 22.483L43.1862 26.093C42.1982 27.0683 40.9822 27.9043 39.5382 28.601C38.0942 29.2977 36.3525 29.646 34.3132 29.646C31.9318 29.646 29.8165 29.1203 27.9672 28.069C26.1305 27.005 24.6865 25.447 23.6352 23.395C22.5965 21.3303 22.0772 18.7907 22.0772 15.776C22.0772 12.8373 22.6155 10.342 23.6922 8.29C24.7815 6.238 26.2572 4.68 28.1192 3.616C29.9812 2.53933 32.0712 2.001 34.3892 2.001ZM54.9703 8.157C57.0476 8.157 58.8146 8.60033 60.2713 9.487C61.728 10.3737 62.8426 11.6213 63.6153 13.23C64.388 14.826 64.7743 16.7007 64.7743 18.854C64.7743 21.096 64.3816 23.0277 63.5963 24.649C62.8236 26.2577 61.709 27.4927 60.2523 28.354C58.7956 29.2153 57.035 29.646 54.9703 29.646C52.9183 29.646 51.1576 29.2217 49.6883 28.373C48.2316 27.5243 47.1106 26.2957 46.3253 24.687C45.5526 23.0783 45.1663 21.1467 45.1663 18.892C45.1663 16.7513 45.5526 14.8767 46.3253 13.268C47.1106 11.6593 48.2316 10.4053 49.6883 9.506C51.1576 8.60667 52.9183 8.157 54.9703 8.157ZM54.9703 12.584C53.7416 12.584 52.8296 13.0907 52.2343 14.104C51.6516 15.1047 51.3603 16.7007 51.3603 18.892C51.3603 21.1213 51.6516 22.7363 52.2343 23.737C52.8296 24.7377 53.7416 25.238 54.9703 25.238C56.199 25.238 57.1046 24.7377 57.6873 23.737C58.2826 22.7363 58.5803 21.1087 58.5803 18.854C58.5803 16.6753 58.2826 15.0857 57.6873 14.085C57.1046 13.0843 56.199 12.584 54.9703 12.584ZM80.4915 0.176998L86.4955 0.803998V29H81.1755L80.8715 26.777C80.3141 27.5623 79.5731 28.24 78.6485 28.81C77.7238 29.3673 76.6028 29.646 75.2855 29.646C73.6135 29.646 72.2265 29.1963 71.1245 28.297C70.0351 27.3977 69.2181 26.1437 68.6735 24.535C68.1415 22.9137 67.8755 21.02 67.8755 18.854C67.8755 16.7767 68.1985 14.9337 68.8445 13.325C69.4905 11.7163 70.4151 10.456 71.6185 9.544C72.8218 8.61933 74.2531 8.157 75.9125 8.157C76.8118 8.157 77.6478 8.31533 78.4205 8.632C79.1931 8.94867 79.8835 9.411 80.4915 10.019V0.176998ZM77.5275 12.546C76.4888 12.546 75.6528 13.04 75.0195 14.028C74.3861 15.0033 74.0695 16.6247 74.0695 18.892C74.0695 20.5513 74.2025 21.8433 74.4685 22.768C74.7345 23.68 75.1018 24.3197 75.5705 24.687C76.0391 25.0543 76.5775 25.238 77.1855 25.238C77.8568 25.238 78.4648 25.029 79.0095 24.611C79.5668 24.193 80.0608 23.623 80.4915 22.901V14.199C80.0735 13.6797 79.6301 13.2743 79.1615 12.983C78.6928 12.6917 78.1481 12.546 77.5275 12.546ZM108.787 23.186C108.787 23.946 108.888 24.497 109.091 24.839C109.306 25.181 109.648 25.4407 110.117 25.618L108.882 29.57C107.691 29.456 106.684 29.1963 105.861 28.791C105.05 28.373 104.41 27.746 103.942 26.91C103.169 27.8347 102.181 28.525 100.978 28.981C99.7743 29.4243 98.5456 29.646 97.2916 29.646C95.2143 29.646 93.555 29.057 92.3136 27.879C91.085 26.6883 90.4706 25.162 90.4706 23.3C90.4706 21.1087 91.3256 19.4177 93.0356 18.227C94.7583 17.0363 97.1776 16.441 100.294 16.441H103.011V15.681C103.011 14.6297 102.669 13.8507 101.985 13.344C101.313 12.8373 100.325 12.584 99.0206 12.584C98.3746 12.584 97.545 12.679 96.5316 12.869C95.5183 13.0463 94.505 13.306 93.4916 13.648L92.1046 9.658C93.4093 9.164 94.7646 8.79033 96.1706 8.537C97.5893 8.28367 98.856 8.157 99.9706 8.157C102.973 8.157 105.189 8.77133 106.621 10C108.065 11.216 108.787 12.9767 108.787 15.282V23.186ZM99.3626 25.352C100.009 25.352 100.686 25.162 101.396 24.782C102.105 24.3893 102.643 23.8383 103.011 23.129V19.861H101.529C99.8566 19.861 98.628 20.1207 97.8426 20.64C97.0573 21.1467 96.6646 21.894 96.6646 22.882C96.6646 23.6547 96.899 24.2627 97.3676 24.706C97.849 25.1367 98.514 25.352 99.3626 25.352ZM120.59 10.893C121.223 10.057 121.983 9.392 122.87 8.898C123.769 8.404 124.732 8.157 125.758 8.157C127.493 8.157 128.905 8.594 129.995 9.468C131.097 10.342 131.907 11.577 132.427 13.173C132.946 14.769 133.206 16.6627 133.206 18.854C133.206 20.9313 132.895 22.787 132.275 24.421C131.667 26.0423 130.761 27.3217 129.558 28.259C128.354 29.1837 126.879 29.646 125.131 29.646C123.015 29.646 121.35 28.8227 120.134 27.176L119.906 29H114.586V0.803998L120.59 0.176998V10.893ZM123.554 25.276C124.618 25.276 125.46 24.7883 126.081 23.813C126.701 22.825 127.012 21.1973 127.012 18.93C127.012 17.258 126.879 15.966 126.613 15.054C126.359 14.1293 125.992 13.4897 125.511 13.135C125.042 12.7677 124.491 12.584 123.858 12.584C123.186 12.584 122.585 12.793 122.053 13.211C121.521 13.629 121.033 14.199 120.59 14.921V23.433C120.97 24.0283 121.394 24.4843 121.863 24.801C122.331 25.1177 122.895 25.276 123.554 25.276ZM143.375 10.893C144.008 10.057 144.768 9.392 145.655 8.898C146.554 8.404 147.517 8.157 148.543 8.157C150.278 8.157 151.691 8.594 152.78 9.468C153.882 10.342 154.693 11.577 155.212 13.173C155.731 14.769 155.991 16.6627 155.991 18.854C155.991 20.9313 155.681 22.787 155.06 24.421C154.452 26.0423 153.546 27.3217 152.343 28.259C151.14 29.1837 149.664 29.646 147.916 29.646C145.801 29.646 144.135 28.8227 142.919 27.176L142.691 29H137.371V0.803998L143.375 0.176998V10.893ZM146.339 25.276C147.403 25.276 148.245 24.7883 148.866 23.813C149.487 22.825 149.797 21.1973 149.797 18.93C149.797 17.258 149.664 15.966 149.398 15.054C149.145 14.1293 148.777 13.4897 148.296 13.135C147.827 12.7677 147.276 12.584 146.643 12.584C145.972 12.584 145.37 12.793 144.838 13.211C144.306 13.629 143.818 14.199 143.375 14.921V23.433C143.755 24.0283 144.179 24.4843 144.648 24.801C145.117 25.1177 145.68 25.276 146.339 25.276ZM166.16 10.893C166.793 10.057 167.553 9.392 168.44 8.898C169.339 8.404 170.302 8.157 171.328 8.157C173.063 8.157 174.476 8.594 175.565 9.468C176.667 10.342 177.478 11.577 177.997 13.173C178.516 14.769 178.776 16.6627 178.776 18.854C178.776 20.9313 178.466 22.787 177.845 24.421C177.237 26.0423 176.331 27.3217 175.128 28.259C173.925 29.1837 172.449 29.646 170.701 29.646C168.586 29.646 166.92 28.8227 165.704 27.176L165.476 29H160.156V0.803998L166.16 0.176998V10.893ZM169.124 25.276C170.188 25.276 171.03 24.7883 171.651 23.813C172.272 22.825 172.582 21.1973 172.582 18.93C172.582 17.258 172.449 15.966 172.183 15.054C171.93 14.1293 171.562 13.4897 171.081 13.135C170.612 12.7677 170.061 12.584 169.428 12.584C168.757 12.584 168.155 12.793 167.623 13.211C167.091 13.629 166.603 14.199 166.16 14.921V23.433C166.54 24.0283 166.964 24.4843 167.433 24.801C167.902 25.1177 168.465 25.276 169.124 25.276ZM193.467 0.803998V22.654C193.467 23.4647 193.695 24.0473 194.151 24.402C194.62 24.744 195.26 24.915 196.07 24.915C196.59 24.915 197.09 24.858 197.571 24.744C198.053 24.6173 198.502 24.4717 198.92 24.307L200.364 28.316C199.68 28.6707 198.857 28.981 197.894 29.247C196.932 29.513 195.811 29.646 194.531 29.646C192.099 29.646 190.313 28.9493 189.173 27.556C188.033 26.15 187.463 24.269 187.463 21.913V4.908H181.516V0.803998H193.467ZM210.932 20.659C211.072 21.761 211.357 22.654 211.787 23.338C212.231 24.0093 212.794 24.5033 213.478 24.82C214.162 25.124 214.929 25.276 215.777 25.276C216.702 25.276 217.595 25.124 218.456 24.82C219.318 24.516 220.147 24.1107 220.945 23.604L223.358 26.872C222.408 27.6827 221.256 28.3477 219.9 28.867C218.558 29.3863 217.025 29.646 215.302 29.646C212.997 29.646 211.065 29.19 209.507 28.278C207.949 27.3533 206.778 26.0867 205.992 24.478C205.207 22.8693 204.814 21.02 204.814 18.93C204.814 16.9413 205.194 15.1363 205.954 13.515C206.714 11.881 207.823 10.5827 209.279 9.62C210.749 8.64467 212.541 8.157 214.656 8.157C216.582 8.157 218.247 8.56867 219.653 9.392C221.072 10.2153 222.168 11.3997 222.94 12.945C223.726 14.4903 224.118 16.346 224.118 18.512C224.118 18.854 224.106 19.2213 224.08 19.614C224.068 20.0067 224.042 20.355 224.004 20.659H210.932ZM214.656 12.185C213.58 12.185 212.712 12.5713 212.053 13.344C211.395 14.1167 210.996 15.3517 210.856 17.049H218.266C218.254 15.5797 217.969 14.4017 217.411 13.515C216.854 12.6283 215.936 12.185 214.656 12.185ZM231.153 5.725L246.011 14.921V19.215L231.21 28.411L228.493 24.326L240.843 17.068L228.493 10.038L231.153 5.725Z" fill="#8B3FF8"/>
</svg>
